<?xml version="1.0" encoding="UTF-8" standalone="no"?>
<!DOCTYPE svg PUBLIC "-//W3C//DTD SVG 1.1//EN"
 "http://www.w3.org/Graphics/SVG/1.1/DTD/svg11.dtd">
<!-- Generated by graphviz version 14.1.4 (20260321.0153)
 -->
<!-- Title: SessionLog Pages: 1 -->
<svg width="162pt" height="575pt"
 viewBox="0.00 0.00 162.00 575.00" xmlns="http://www.w3.org/2000/svg" xmlns:xlink="http://www.w3.org/1999/xlink">
<g id="graph0" class="graph" transform="scale(1 1) rotate(0) translate(4 571.4)">
<title>SessionLog</title>
<polygon fill="white" stroke="none" points="-4,4 -4,-571.4 158.05,-571.4 158.05,4 -4,4"/>
<!-- __start__ -->
<g id="node1" class="node">
<title>__start__</title>
<ellipse fill="#2c3e50" stroke="#2c3e50" cx="77.03" cy="-554.8" rx="12.6" ry="12.6"/>
<text xml:space="preserve" text-anchor="middle" x="77.03" y="-552.07" font-family="Helvetica,sans-Serif" font-size="8.00" fill="white">In</text>
</g>
<!-- agent_0 -->
<g id="node3" class="node">
<title>agent_0</title>
<path fill="#ffffff" stroke="#888888" d="M142.05,-499.2C142.05,-499.2 12,-499.2 12,-499.2 6,-499.2 0,-493.2 0,-487.2 0,-487.2 0,-475.2 0,-475.2 0,-469.2 6,-463.2 12,-463.2 12,-463.2 142.05,-463.2 142.05,-463.2 148.05,-463.2 154.05,-469.2 154.05,-475.2 154.05,-475.2 154.05,-487.2 154.05,-487.2 154.05,-493.2 148.05,-499.2 142.05,-499.2"/>
<text xml:space="preserve" text-anchor="start" x="14.4" y="-478.5" font-family="Helvetica,sans-Serif" font-weight="bold" font-size="11.00">InversePromptingAgent</text>
</g>
<!-- __start__&#45;&gt;agent_0 -->
<g id="edge1" class="edge">
<title>__start__&#45;&gt;agent_0</title>
<path fill="none" stroke="#888888" d="M77.03,-541.98C77.03,-533.52 77.03,-521.75 77.03,-510.9"/>
<polygon fill="#888888" stroke="#888888" points="80.53,-511.19 77.03,-501.19 73.53,-511.19 80.53,-511.19"/>
<text xml:space="preserve" text-anchor="start" x="38.78" y="-528.69" font-family="Helvetica,sans-Serif" font-size="8.00" fill="#555555">[17:20:29] </text>
</g>
<!-- __end__ -->
<g id="node2" class="node">
<title>__end__</title>
<ellipse fill="#2c3e50" stroke="#2c3e50" cx="77.03" cy="-12.6" rx="12.6" ry="12.6"/>
<text xml:space="preserve" text-anchor="middle" x="77.03" y="-9.88" font-family="Helvetica,sans-Serif" font-size="8.00" fill="white">Out</text>
</g>
<!-- agent_1 -->
<g id="node4" class="node">
<title>agent_1</title>
<path fill="#ffffff" stroke="#888888" d="M118.43,-420.2C118.43,-420.2 35.62,-420.2 35.62,-420.2 29.62,-420.2 23.63,-414.2 23.63,-408.2 23.63,-408.2 23.63,-396.2 23.63,-396.2 23.63,-390.2 29.63,-384.2 35.63,-384.2 35.63,-384.2 118.43,-384.2 118.43,-384.2 124.43,-384.2 130.43,-390.2 130.43,-396.2 130.43,-396.2 130.43,-408.2 130.43,-408.2 130.43,-414.2 124.43,-420.2 118.43,-420.2"/>
<text xml:space="preserve" text-anchor="start" x="38.03" y="-399.5" font-family="Helvetica,sans-Serif" font-weight="bold" font-size="11.00">PlanningAgent</text>
</g>
<!-- agent_0&#45;&gt;agent_1 -->
<g id="edge2" class="edge">
<title>agent_0&#45;&gt;agent_1</title>
<path fill="none" stroke="#888888" d="M77.03,-462.73C77.03,-453.67 77.03,-442.37 77.03,-432.06"/>
<polygon fill="#888888" stroke="#888888" points="80.53,-432.12 77.03,-422.12 73.53,-432.12 80.53,-432.12"/>
<text xml:space="preserve" text-anchor="start" x="38.78" y="-449.64" font-family="Helvetica,sans-Serif" font-size="8.00" fill="#555555">[17:20:48] </text>
</g>
<!-- agent_2 -->
<g id="node5" class="node">
<title>agent_2</title>
<path fill="#ffffff" stroke="#888888" d="M119.93,-341.2C119.93,-341.2 34.12,-341.2 34.12,-341.2 28.12,-341.2 22.12,-335.2 22.12,-329.2 22.12,-329.2 22.12,-317.2 22.12,-317.2 22.12,-311.2 28.12,-305.2 34.12,-305.2 34.12,-305.2 119.93,-305.2 119.93,-305.2 125.93,-305.2 131.93,-311.2 131.93,-317.2 131.93,-317.2 131.93,-329.2 131.93,-329.2 131.93,-335.2 125.93,-341.2 119.93,-341.2"/>
<text xml:space="preserve" text-anchor="start" x="36.53" y="-320.5" font-family="Helvetica,sans-Serif" font-weight="bold" font-size="11.00">TechnicalAgent</text>
</g>
<!-- agent_1&#45;&gt;agent_2 -->
<g id="edge3" class="edge">
<title>agent_1&#45;&gt;agent_2</title>
<path fill="none" stroke="#888888" d="M77.03,-383.73C77.03,-374.67 77.03,-363.37 77.03,-353.06"/>
<polygon fill="#888888" stroke="#888888" points="80.53,-353.12 77.03,-343.12 73.53,-353.12 80.53,-353.12"/>
<text xml:space="preserve" text-anchor="start" x="38.78" y="-370.64" font-family="Helvetica,sans-Serif" font-size="8.00" fill="#555555">[17:21:07] </text>
</g>
<!-- agent_3 -->
<g id="node6" class="node">
<title>agent_3</title>
<path fill="#ffffff" stroke="#888888" d="M121.05,-262.2C121.05,-262.2 33,-262.2 33,-262.2 27,-262.2 21,-256.2 21,-250.2 21,-250.2 21,-238.2 21,-238.2 21,-232.2 27,-226.2 33,-226.2 33,-226.2 121.05,-226.2 121.05,-226.2 127.05,-226.2 133.05,-232.2 133.05,-238.2 133.05,-238.2 133.05,-250.2 133.05,-250.2 133.05,-256.2 127.05,-262.2 121.05,-262.2"/>
<text xml:space="preserve" text-anchor="start" x="35.4" y="-241.5" font-family="Helvetica,sans-Serif" font-weight="bold" font-size="11.00">MarketingAgent</text>
</g>
<!-- agent_2&#45;&gt;agent_3 -->
<g id="edge4" class="edge">
<title>agent_2&#45;&gt;agent_3</title>
<path fill="none" stroke="#888888" d="M77.03,-304.73C77.03,-295.67 77.03,-284.37 77.03,-274.06"/>
<polygon fill="#888888" stroke="#888888" points="80.53,-274.12 77.03,-264.12 73.53,-274.12 80.53,-274.12"/>
<text xml:space="preserve" text-anchor="start" x="38.78" y="-291.64" font-family="Helvetica,sans-Serif" font-size="8.00" fill="#555555">[17:21:23] </text>
</g>
<!-- agent_4 -->
<g id="node7" class="node">
<title>agent_4</title>
<path fill="#ffffff" stroke="#888888" d="M127.8,-183.2C127.8,-183.2 26.25,-183.2 26.25,-183.2 20.25,-183.2 14.25,-177.2 14.25,-171.2 14.25,-171.2 14.25,-159.2 14.25,-159.2 14.25,-153.2 20.25,-147.2 26.25,-147.2 26.25,-147.2 127.8,-147.2 127.8,-147.2 133.8,-147.2 139.8,-153.2 139.8,-159.2 139.8,-159.2 139.8,-171.2 139.8,-171.2 139.8,-177.2 133.8,-183.2 127.8,-183.2"/>
<text xml:space="preserve" text-anchor="start" x="28.65" y="-162.5" font-family="Helvetica,sans-Serif" font-weight="bold" font-size="11.00">ConsistencyAgent</text>
</g>
<!-- agent_3&#45;&gt;agent_4 -->
<g id="edge5" class="edge">
<title>agent_3&#45;&gt;agent_4</title>
<path fill="none" stroke="#888888" d="M77.03,-225.73C77.03,-216.67 77.03,-205.37 77.03,-195.06"/>
<polygon fill="#888888" stroke="#888888" points="80.53,-195.12 77.03,-185.12 73.53,-195.12 80.53,-195.12"/>
<text xml:space="preserve" text-anchor="start" x="38.78" y="-212.64" font-family="Helvetica,sans-Serif" font-size="8.00" fill="#555555">[17:21:47] </text>
</g>
<!-- agent_5 -->
<g id="node8" class="node">
<title>agent_5</title>
<path fill="#ffffff" stroke="#888888" d="M109.43,-104.2C109.43,-104.2 44.62,-104.2 44.62,-104.2 38.62,-104.2 32.63,-98.2 32.63,-92.2 32.63,-92.2 32.63,-80.2 32.63,-80.2 32.63,-74.2 38.63,-68.2 44.63,-68.2 44.63,-68.2 109.43,-68.2 109.43,-68.2 115.43,-68.2 121.43,-74.2 121.43,-80.2 121.43,-80.2 121.43,-92.2 121.43,-92.2 121.43,-98.2 115.43,-104.2 109.43,-104.2"/>
<text xml:space="preserve" text-anchor="start" x="47.03" y="-83.5" font-family="Helvetica,sans-Serif" font-weight="bold" font-size="11.00">CriticAgent</text>
</g>
<!-- agent_4&#45;&gt;agent_5 -->
<g id="edge6" class="edge">
<title>agent_4&#45;&gt;agent_5</title>
<path fill="none" stroke="#888888" d="M77.03,-146.73C77.03,-137.67 77.03,-126.37 77.03,-116.06"/>
<polygon fill="#888888" stroke="#888888" points="80.53,-116.12 77.03,-106.12 73.53,-116.12 80.53,-116.12"/>
<text xml:space="preserve" text-anchor="start" x="38.78" y="-133.64" font-family="Helvetica,sans-Serif" font-size="8.00" fill="#555555">[17:22:12] </text>
</g>
<!-- agent_5&#45;&gt;__end__ -->
<g id="edge7" class="edge">
<title>agent_5&#45;&gt;__end__</title>
<path fill="none" stroke="#888888" d="M77.03,-67.87C77.03,-58.57 77.03,-46.98 77.03,-36.91"/>
<polygon fill="#888888" stroke="#888888" points="80.53,-37.13 77.03,-27.13 73.53,-37.13 80.53,-37.13"/>
</g>
</g>
</svg>
